# xmcd CD database file
#
# Track frame offsets:
#	150
#	20242
#	41885
#	61765
#	82169
#	102950
#	122577
#	143167
#	165597
#	187688
#	209146
#	228138
#	246682
#	267812
#	291610
#	312114
#	334341
#
# Disc length: 4724 seconds
#
# Revision: 0
# Processed by: cddbd v1.5.2PL0 Copyright (c) Steve Scherf et al.
# Submitted via: CDex 1.70beta2
#
DISCID=04127211
DTITLE=Various Artist - Salsa En La Calle 8
DYEAR=2002
DGENRE=Salsa
TTITLE0=José Alberto "El Canario" - Quiero Salsa
TTITLE1=Tony Vega - Sal De Aqui
TTITLE2=Tito Rojas - La Gente Dice
TTITLE3=Frankie Negron - Comerte A Besos
TTITLE4=Miles Pena - Solito Solo
TTITLE5=Carolina Lao - Dulce Veneno
TTITLE6=Tito Nieves - Un Amor Asi
TTITLE7=Kevin Ceballo - Mi Primer Amor
TTITLE8=Ismael Miranda - Trayectoria
TTITLE9=Rey Ruiz - Tuyo
TTITLE10=Giro - Dame La Oportunidad
TTITLE11=Nuey Dunbar - Yo Si Me Enamore
TTITLE12=Puerto Rican Power - Pena De Amor
TTITLE13=Jay Lozada - Por Amarte Asi
TTITLE14=Rey Ruiz - No
TTITLE15=Jerry Rivera - Quiero
TTITLE16=Carlos Vega - Respetalia
EXTD=YEAR: 2002
EXTT0=
EXTT1=
EXTT2=
EXTT3=
EXTT4=
EXTT5=
EXTT6=
EXTT7=
EXTT8=
EXTT9=
EXTT10=
EXTT11=
EXTT12=
EXTT13=
EXTT14=
EXTT15=
EXTT16=
PLAYORDER=
